<svg viewBox="0 0 120 120" xmlns="http://www.w3.org/2000/svg" fill="none" role="img" aria-label="DarkNote owl">
  <defs>
    <linearGradient id="dnKeyhole" x1="24" y1="14" x2="96" y2="112" gradientUnits="userSpaceOnUse">
      <stop stop-color="#c8a4ff"/>
      <stop offset="1" stop-color="#6d3bef"/>
    </linearGradient>
  </defs>
  <g stroke="url(#dnKeyhole)" stroke-width="4.5" stroke-linecap="round" stroke-linejoin="round">
    <path d="M35 27 L49 43"/>
    <path d="M85 27 L71 43"/>
    <path d="M49 43 C 26 53, 25 85, 45 98 C 55 105, 65 105, 75 98 C 95 85, 94 53, 71 43"/>
    <path d="M41 47 Q 60 41 79 47"/>
    <circle cx="47" cy="61" r="12"/>
    <circle cx="73" cy="61" r="12"/>
  </g>
  <circle cx="47" cy="61" r="4.5" fill="url(#dnKeyhole)"/>
  <circle cx="73" cy="61" r="4.5" fill="url(#dnKeyhole)"/>
  <g fill="url(#dnKeyhole)">
    <circle cx="60" cy="80" r="5"/>
    <path d="M56.4 82 L63.6 82 L62 92 L58 92 Z"/>
  </g>
</svg>
